<svg xmlns="http://www.w3.org/2000/svg" viewBox="0 0 64 64"><title>Artboard-13</title><g id="Calendar_Graduation" data-name="Calendar Graduation"><path d="M58,10H56a1,1,0,0,0-1,1v3A2,2,0,0,1,52.852,16,2.129,2.129,0,0,1,51,13.831V11a1,1,0,0,0-1-1H42a1,1,0,0,0-1,1v3A2,2,0,0,1,38.852,16,2.129,2.129,0,0,1,37,13.831V11a1,1,0,0,0-1-1H28a1,1,0,0,0-1,1v3a1.983,1.983,0,0,1-.587,1.413A2.02,2.02,0,0,1,24.852,16,2.129,2.129,0,0,1,23,13.831V11a1,1,0,0,0-1-1H14a1,1,0,0,0-1,1v3a1.983,1.983,0,0,1-.587,1.413A2.018,2.018,0,0,1,10.852,16,2.129,2.129,0,0,1,9,13.831V11a1,1,0,0,0-1-1H6a6.006,6.006,0,0,0-6,6V54a6.006,6.006,0,0,0,6,6H58a6.006,6.006,0,0,0,6-6V16A6.006,6.006,0,0,0,58,10Z" style="fill:#e6edff"/><path d="M64,22V16a6.006,6.006,0,0,0-6-6H56a1,1,0,0,0-1,1v3A2,2,0,0,1,52.852,16,2.129,2.129,0,0,1,51,13.831V11a1,1,0,0,0-1-1H42a1,1,0,0,0-1,1v3A2,2,0,0,1,38.852,16,2.129,2.129,0,0,1,37,13.831V11a1,1,0,0,0-1-1H28a1,1,0,0,0-1,1v3a1.983,1.983,0,0,1-.587,1.413A2.02,2.02,0,0,1,24.852,16,2.129,2.129,0,0,1,23,13.831V11a1,1,0,0,0-1-1H14a1,1,0,0,0-1,1v3a1.983,1.983,0,0,1-.587,1.413A2.018,2.018,0,0,1,10.852,16,2.129,2.129,0,0,1,9,13.831V11a1,1,0,0,0-1-1H6a6.006,6.006,0,0,0-6,6v6Z" style="fill:#e63b47"/><path d="M11,4A4,4,0,0,0,7,8v6a4,4,0,0,0,8,0V8A4,4,0,0,0,11,4Z" style="fill:#4aa4f2"/><path d="M25,4a4,4,0,0,0-4,4v6a4,4,0,0,0,8,0V8A4,4,0,0,0,25,4Z" style="fill:#4aa4f2"/><path d="M39,4a4,4,0,0,0-4,4v6a4,4,0,0,0,8,0V8A4,4,0,0,0,39,4Z" style="fill:#4aa4f2"/><path d="M53,4a4,4,0,0,0-4,4v6a4,4,0,0,0,8,0V8A4,4,0,0,0,53,4Z" style="fill:#4aa4f2"/><path d="M43.535,37.976a1,1,0,0,0-.961-.061L32,42.9l-10.574-4.98A1,1,0,0,0,20,38.82v10a1,1,0,0,0,.574.905l11,5.18a1,1,0,0,0,.852,0l11-5.18A1,1,0,0,0,44,48.82v-10A1,1,0,0,0,43.535,37.976Z" style="fill:#8093b2"/><path d="M49,51a1,1,0,0,1-1-1V36a1,1,0,0,1,2,0V50A1,1,0,0,1,49,51Z" style="fill:#8093b2"/><path d="M49.426,35.1l-17-8a1,1,0,0,0-.852,0l-17,8a1,1,0,0,0,0,1.81l17,8a1,1,0,0,0,.852,0l17-8a1,1,0,0,0,0-1.81Z" style="fill:#a8b7d4"/></g></svg>